<svg xmlns="http://www.w3.org/2000/svg" width="1024" height="1024" viewBox="0 0 1024 1024">
  <defs>
    <linearGradient id="a" x1="184" y1="164" x2="824" y2="850" gradientUnits="userSpaceOnUse">
      <stop stop-color="#e7f8ff"/><stop offset="1" stop-color="#9bcdf0"/>
    </linearGradient>
    <linearGradient id="b" x1="834" y1="210" x2="240" y2="826" gradientUnits="userSpaceOnUse">
      <stop stop-color="#d8f3ff"/><stop offset="1" stop-color="#77b9e7"/>
    </linearGradient>
    <filter id="s" x="-20%" y="-20%" width="140%" height="150%"><feDropShadow dx="0" dy="18" stdDeviation="20" flood-color="#5b9dce" flood-opacity=".18"/></filter>
  </defs>
  <rect width="1024" height="1024" fill="#fff"/>
  <g filter="url(#s)">
    <path d="M294 198h300c48 0 87 39 87 87v300c0 48-39 87-87 87H294c-48 0-87-39-87-87V285c0-48 39-87 87-87Z" fill="url(#a)" transform="rotate(-25 444 435)"/>
    <path d="M430 352h300c48 0 87 39 87 87v300c0 48-39 87-87 87H430c-48 0-87-39-87-87V439c0-48 39-87 87-87Z" fill="url(#b)" transform="rotate(25 580 589)"/>
    <circle cx="512" cy="512" r="106" fill="#7dbbe5"/>
    <circle cx="512" cy="512" r="34" fill="#effaff"/>
  </g>
</svg>
